<mxfile host="app.diagrams.net" modified="2023-09-03T21:23:38.168Z" agent="Mozilla/5.0 (Windows NT 10.0; Win64; x64) AppleWebKit/537.36 (KHTML, like Gecko) Chrome/116.0.0.0 Safari/537.36 Edg/116.0.1938.62" etag="cIlckLwvKTuHVNLZQHeF" version="21.7.2" type="device">
  <diagram name="Page-1" id="csX1hdj6m0Z8nqsK_4cz">
    <mxGraphModel dx="1368" dy="767" grid="1" gridSize="10" guides="1" tooltips="1" connect="1" arrows="1" fold="1" page="1" pageScale="1" pageWidth="2023" pageHeight="1864" math="0" shadow="0">
      <root>
        <mxCell id="0" />
        <mxCell id="1" parent="0" />
        <mxCell id="25Gr2kETqmohkxBlYuHO-6" value="" style="edgeStyle=entityRelationEdgeStyle;fontSize=12;html=1;endArrow=ERone;startArrow=ERmany;rounded=0;strokeWidth=3;endSize=22;targetPerimeterSpacing=0;startSize=22;exitX=1;exitY=0.5;exitDx=0;exitDy=0;entryX=0;entryY=0.5;entryDx=0;entryDy=0;endFill=0;" parent="1" edge="1">
          <mxGeometry width="100" height="100" relative="1" as="geometry">
            <mxPoint x="820.0000000000005" y="931.7500000000009" as="sourcePoint" />
            <mxPoint x="1203" y="931.7500000000009" as="targetPoint" />
          </mxGeometry>
        </mxCell>
        <mxCell id="R6udPkQZQrERZ07D4e_T-1" value="&lt;font style=&quot;font-size: 30px;&quot;&gt;User&lt;/font&gt;" style="rounded=1;arcSize=10;whiteSpace=wrap;html=1;align=center;fontFamily=Times New Roman;fontSize=35;strokeWidth=3;" parent="1" vertex="1">
          <mxGeometry x="620" y="872" width="200" height="120" as="geometry" />
        </mxCell>
        <mxCell id="R6udPkQZQrERZ07D4e_T-2" value="&lt;font style=&quot;font-size: 30px;&quot;&gt;PigCare&lt;/font&gt;" style="rounded=1;arcSize=10;whiteSpace=wrap;html=1;align=center;fontFamily=Times New Roman;fontSize=35;strokeWidth=3;" parent="1" vertex="1">
          <mxGeometry x="1200" y="872" width="200" height="120" as="geometry" />
        </mxCell>
      </root>
    </mxGraphModel>
  </diagram>
</mxfile>
